<?xml version="1.0" encoding="utf-8"?>
<!-- Generator: Adobe Illustrator 23.0.0, SVG Export Plug-In . SVG Version: 6.00 Build 0)  -->
<svg version="1.1" id="图层_1" xmlns="http://www.w3.org/2000/svg" xmlns:xlink="http://www.w3.org/1999/xlink" x="0px" y="0px"
	 viewBox="0 0 373.3 68.9" style="enable-background:new 0 0 373.3 68.9;" xml:space="preserve">
<style type="text/css">
	.st0{fill:url(#SVGID_1_);}
	.st1{fill:url(#SVGID_2_);}
	.st2{fill:url(#SVGID_3_);}
	.st3{fill:url(#SVGID_4_);}
	.st4{fill:url(#SVGID_5_);}
	.st5{fill:url(#SVGID_6_);}
	.st6{fill:url(#SVGID_7_);}
	.st7{fill:url(#SVGID_8_);}
	.st8{fill:url(#SVGID_9_);}
	.st9{fill:url(#SVGID_10_);}
	.st10{fill:#4F4F4F;}
</style>
<g>
	<g>
		<linearGradient id="SVGID_1_" gradientUnits="userSpaceOnUse" x1="40.6263" y1="76.5433" x2="72.7001" y2="48.778">
			<stop  offset="0" style="stop-color:#00AEEB"/>
			<stop  offset="0.5162" style="stop-color:#2B883A"/>
			<stop  offset="1" style="stop-color:#FCC201"/>
		</linearGradient>
		<path class="st0" d="M71.7,56.4c-3.7,0-6.7-3-6.7-6.7c0-3.7,3-6.7,6.7-6.7c3.7,0,6.7,3,6.7,6.7C78.4,53.4,75.4,56.4,71.7,56.4z
			 M71.7,46.8c-1.6,0-2.9,1.3-2.9,2.9c0,1.6,1.3,2.9,2.9,2.9c1.6,0,2.9-1.3,2.9-2.9C74.5,48.1,73.3,46.8,71.7,46.8z"/>
	</g>
	<g>
		<linearGradient id="SVGID_2_" gradientUnits="userSpaceOnUse" x1="26.1149" y1="59.7799" x2="58.1886" y2="32.0147">
			<stop  offset="0" style="stop-color:#00AEEB"/>
			<stop  offset="0.5162" style="stop-color:#2B883A"/>
			<stop  offset="1" style="stop-color:#FCC201"/>
		</linearGradient>
		<path class="st1" d="M82.5,17.7c-3.7,0-6.7-3-6.7-6.7c0-3.7,3-6.7,6.7-6.7c3.7,0,6.7,3,6.7,6.7C89.2,14.7,86.2,17.7,82.5,17.7z
			 M82.5,8.1c-1.6,0-2.9,1.3-2.9,2.9c0,1.6,1.3,2.9,2.9,2.9c1.6,0,2.9-1.3,2.9-2.9C85.4,9.4,84.1,8.1,82.5,8.1z"/>
	</g>
	<linearGradient id="SVGID_3_" gradientUnits="userSpaceOnUse" x1="32.3978" y1="67.0379" x2="64.4714" y2="39.2726">
		<stop  offset="0" style="stop-color:#00AEEB"/>
		<stop  offset="0.5162" style="stop-color:#2B883A"/>
		<stop  offset="1" style="stop-color:#FCC201"/>
	</linearGradient>
	<path class="st2" d="M51.1,59.4c-0.5,0.9-0.2,2.1,0.7,2.6c0.3,0.2,0.6,0.3,1,0.3c0.7,0,1.3-0.3,1.6-0.9l17.2-28.8l-2.2-3.7
		L51.1,59.4z M80.8,13.4c-0.9-0.5-2.1-0.2-2.6,0.7L76,17.6l2.2,3.7l3.2-5.4C82,15.1,81.7,13.9,80.8,13.4z"/>
	<g>
		<linearGradient id="SVGID_4_" gradientUnits="userSpaceOnUse" x1="42.586" y1="78.8069" x2="74.6596" y2="51.0417">
			<stop  offset="0" style="stop-color:#00AEEB"/>
			<stop  offset="0.5162" style="stop-color:#2B883A"/>
			<stop  offset="1" style="stop-color:#FCC201"/>
		</linearGradient>
		<path class="st3" d="M65.5,62.5c-0.3,0-0.7-0.1-1-0.3c-0.9-0.5-1.2-1.7-0.7-2.6l4-6.6c0.5-0.9,1.7-1.2,2.6-0.7
			c0.9,0.5,1.2,1.7,0.7,2.6l-4,6.6C66.8,62.2,66.1,62.5,65.5,62.5z"/>
	</g>
	<g>
		<linearGradient id="SVGID_5_" gradientUnits="userSpaceOnUse" x1="23.6876" y1="56.9762" x2="55.7613" y2="29.2109">
			<stop  offset="0" style="stop-color:#00AEEB"/>
			<stop  offset="0.5162" style="stop-color:#2B883A"/>
			<stop  offset="1" style="stop-color:#FCC201"/>
		</linearGradient>
		<path class="st4" d="M26.2,62.3c-0.3,0-0.7-0.1-1-0.3c-0.9-0.5-1.2-1.7-0.7-2.6l13.8-23.1c0.5-0.9,1.7-1.2,2.6-0.7
			c0.9,0.5,1.2,1.7,0.7,2.6L27.8,61.4C27.5,62,26.8,62.3,26.2,62.3z"/>
	</g>
	<g>
		<linearGradient id="SVGID_6_" gradientUnits="userSpaceOnUse" x1="16.2916" y1="48.4325" x2="48.3654" y2="20.6672">
			<stop  offset="0" style="stop-color:#00AEEB"/>
			<stop  offset="0.5162" style="stop-color:#2B883A"/>
			<stop  offset="1" style="stop-color:#FCC201"/>
		</linearGradient>
		<path class="st5" d="M40,39.2H18.4c-1.1,0-1.9-0.9-1.9-1.9s0.9-1.9,1.9-1.9H40c1.1,0,1.9,0.9,1.9,1.9S41,39.2,40,39.2z"/>
	</g>
	<g>
		<linearGradient id="SVGID_7_" gradientUnits="userSpaceOnUse" x1="9.5633" y1="40.6601" x2="41.6369" y2="12.8948">
			<stop  offset="0" style="stop-color:#00AEEB"/>
			<stop  offset="0.5162" style="stop-color:#2B883A"/>
			<stop  offset="1" style="stop-color:#FCC201"/>
		</linearGradient>
		<path class="st6" d="M13.5,44c-3.7,0-6.7-3-6.7-6.7c0-3.7,3-6.7,6.7-6.7c3.7,0,6.7,3,6.7,6.7C20.2,41,17.2,44,13.5,44z M13.5,34.4
			c-1.6,0-2.9,1.3-2.9,2.9c0,1.6,1.3,2.9,2.9,2.9c1.6,0,2.9-1.3,2.9-2.9C16.3,35.7,15,34.4,13.5,34.4z"/>
	</g>
	<g>
		<linearGradient id="SVGID_8_" gradientUnits="userSpaceOnUse" x1="38.4039" y1="73.976" x2="70.4776" y2="46.2108">
			<stop  offset="0" style="stop-color:#00AEEB"/>
			<stop  offset="0.5162" style="stop-color:#2B883A"/>
			<stop  offset="1" style="stop-color:#FCC201"/>
		</linearGradient>
		<path class="st7" d="M52.6,58.7H42.3l11.2-18.8c-1.4-0.1-2.6-0.7-3.4-1.7L37.3,59.6c-0.4,0.6-0.4,1.3,0,1.9c0.3,0.6,1,1,1.7,1
			h13.7c1.1,0,1.9-0.9,1.9-1.9S53.6,58.7,52.6,58.7z M96.6,59.6l-28-46.9c-0.7-1.2-2.6-1.2-3.3,0L54.7,30.4c1.3,0.3,2.4,1.1,3.1,2.2
			l9.1-15.3l24.6,41.3H65.7c-1.1,0-1.9,0.9-1.9,1.9s0.9,1.9,1.9,1.9h29.2c0.7,0,1.3-0.4,1.7-1C96.9,61,96.9,60.2,96.6,59.6z"/>
		<linearGradient id="SVGID_9_" gradientUnits="userSpaceOnUse" x1="17.963" y1="50.3632" x2="50.0367" y2="22.5979">
			<stop  offset="0" style="stop-color:#00AEEB"/>
			<stop  offset="0.5162" style="stop-color:#2B883A"/>
			<stop  offset="1" style="stop-color:#FCC201"/>
		</linearGradient>
		<path class="st8" d="M26,58.7H15.7L25.1,43h-4.5l-9.9,16.6c-0.4,0.6-0.4,1.3,0,1.9c0.3,0.6,1,1,1.7,1H26c1.1,0,1.9-0.9,1.9-1.9
			S27.1,58.7,26,58.7z M42,12.7c-0.7-1.2-2.6-1.2-3.3,0L27.5,31.5H32l8.4-14.1l9.2,15.4c0.6-1.2,1.7-2,3.1-2.3L42,12.7z"/>
		<linearGradient id="SVGID_10_" gradientUnits="userSpaceOnUse" x1="25.7421" y1="59.3494" x2="57.8158" y2="31.5841">
			<stop  offset="0" style="stop-color:#00AEEB"/>
			<stop  offset="0.5162" style="stop-color:#2B883A"/>
			<stop  offset="1" style="stop-color:#FCC201"/>
		</linearGradient>
		<path class="st9" d="M53.7,41.8c-3.7,0-6.7-3-6.7-6.7c0-3.7,3-6.7,6.7-6.7c3.7,0,6.7,3,6.7,6.7C60.4,38.8,57.4,41.8,53.7,41.8z
			 M53.7,32.3c-1.6,0-2.9,1.3-2.9,2.9c0,1.6,1.3,2.9,2.9,2.9c1.6,0,2.9-1.3,2.9-2.9C56.6,33.5,55.3,32.3,53.7,32.3z"/>
	</g>
</g>
<g>
	<path class="st10" d="M140.6,20c0-0.1,0-0.2,0-0.3c0-0.1,0-0.1,0-0.2c0-0.1,0-0.2-0.1-0.2c0-0.1,0-0.2-0.1-0.2
		c0-0.1-0.1-0.1-0.1-0.2c0-0.1-0.1-0.1-0.1-0.2c0-0.1-0.1-0.1-0.1-0.2c-0.1-0.1-0.1-0.1-0.2-0.2c0,0-0.1-0.1-0.1-0.1
		c-0.1-0.1-0.2-0.1-0.2-0.2c0,0,0,0,0,0c0,0-0.1,0-0.1-0.1c-0.1,0-0.2-0.1-0.3-0.1c-0.1,0-0.2,0-0.2-0.1c-0.1,0-0.2,0-0.2-0.1
		c-0.1,0-0.2,0-0.3,0c0,0-0.1,0-0.1,0c0,0,0,0,0,0c-0.1,0-0.2,0-0.4,0c0,0-0.1,0-0.1,0c-0.1,0-0.2,0.1-0.3,0.1c0,0-0.1,0-0.1,0
		c-0.1,0-0.2,0.1-0.3,0.2c0,0-0.1,0-0.1,0c-0.1,0.1-0.2,0.1-0.2,0.2c0,0-0.1,0.1-0.1,0.1c0,0-0.1,0.1-0.1,0.2
		c-0.1,0.1-0.1,0.1-0.2,0.2c0,0,0,0,0,0L123.2,39l-12.9-20.3c-0.5-0.8-1.3-1.2-2.1-1.1c0,0-0.1,0-0.1,0c-1.4,0-2.5,1.1-2.5,2.5v40
		c0,1.4,1.1,2.5,2.5,2.5c1.4,0,2.5-1.1,2.5-2.5V28.4L121,44.8c0.2,0.3,0.5,0.6,0.8,0.9c0,0,0.1,0,0.1,0.1c0.1,0.1,0.2,0.1,0.3,0.1
		c0.1,0,0.2,0.1,0.3,0.1c0.2,0,0.3,0.1,0.5,0.1c0,0,0.1,0,0.1,0c0,0,0,0,0,0s0,0,0,0c0,0,0.1,0,0.1,0c0.2,0,0.3,0,0.5-0.1
		c0.1,0,0.2-0.1,0.3-0.1c0.1,0,0.2-0.1,0.3-0.1c0,0,0.1,0,0.1-0.1c0.4-0.2,0.6-0.5,0.8-0.9l10.3-16.3V60c0,1.4,1.1,2.5,2.5,2.5
		c1.4,0,2.5-1.1,2.5-2.5L140.6,20C140.6,20,140.6,20,140.6,20z"/>
	<path class="st10" d="M366.4,31c-1.4,0-2.5,1.1-2.5,2.5v18.2l-10.5-16.5c-0.2-0.3-0.5-0.6-0.8-0.9c-0.1-0.1-0.2-0.1-0.3-0.2
		c0,0,0,0-0.1,0c-0.1,0-0.2-0.1-0.3-0.1c0,0-0.1,0-0.1,0c-0.1,0-0.2,0-0.3,0c-0.1,0-0.1,0-0.2,0c-0.1,0-0.1,0-0.2,0
		c-0.1,0-0.2,0-0.3,0c0,0-0.1,0-0.1,0c-0.1,0-0.2,0.1-0.4,0.1c0,0,0,0,0,0c-0.1,0-0.2,0.1-0.3,0.2c-0.3,0.2-0.6,0.5-0.8,0.9
		l-10.3,16.3v-18c0-1.4-1.1-2.5-2.5-2.5c-1.4,0-2.5,1.1-2.5,2.5V60c0,0,0,0,0,0c0,0.1,0,0.2,0,0.3c0,0.1,0,0.1,0,0.2
		c0,0.1,0.1,0.2,0.1,0.3c0,0.1,0,0.1,0.1,0.2c0,0.1,0.1,0.2,0.1,0.2c0,0.1,0.1,0.1,0.1,0.2c0,0.1,0.1,0.1,0.2,0.2
		c0.1,0.1,0.1,0.1,0.2,0.2c0,0,0.1,0.1,0.1,0.1c0.1,0.1,0.2,0.1,0.2,0.2c0,0,0,0,0,0c0,0,0,0,0.1,0c0.2,0.1,0.3,0.2,0.5,0.2
		c0.1,0,0.1,0,0.2,0c0.2,0,0.4,0.1,0.6,0.1c0,0,0,0,0,0c0,0,0,0,0,0c0,0,0,0,0,0c0.2,0,0.4,0,0.6-0.1c0,0,0.1,0,0.1,0
		c0.1,0,0.3-0.1,0.4-0.2c0.1,0,0.1-0.1,0.2-0.1c0.1-0.1,0.2-0.2,0.3-0.2c0,0,0.1-0.1,0.1-0.1c0.1-0.1,0.3-0.3,0.4-0.4c0,0,0,0,0,0
		l12.9-20.3l12.9,20.3c0.5,0.7,1.3,1.1,2.1,1.1c0,0,0,0,0.1,0c0,0,0.1,0,0.1,0c1.4,0,2.5-1.1,2.5-2.5V33.5
		C368.9,32.2,367.7,31,366.4,31z"/>
	<path class="st10" d="M277,31.2h-17.8v-8.6H277c1.4,0,2.5-1.1,2.5-2.5s-1.1-2.5-2.5-2.5h-20.3c-1.4,0-2.5,1.1-2.5,2.5v40
		c0,1.4,1.1,2.5,2.5,2.5c1.4,0,2.5-1.1,2.5-2.5V36.1H277c1.4,0,2.5-1.1,2.5-2.5C279.5,32.3,278.3,31.2,277,31.2z"/>
	<g>
		<path class="st10" d="M173.5,52.8c-1.1-0.8-2.6-0.6-3.5,0.5c-2.1,2.7-5.2,4.3-8.6,4.3c-5.9,0-10.7-4.8-10.7-10.7
			c0-1.4-1.1-2.5-2.5-2.5c-1.4,0-2.5,1.1-2.5,2.5c0,8.6,7,15.7,15.7,15.7c5,0,9.5-2.3,12.5-6.2C174.8,55.2,174.6,53.7,173.5,52.8z"
			/>
		<path class="st10" d="M161.4,31.1c-5.3,0-10.2,2.6-13.1,7c-0.8,1.1-0.4,2.7,0.7,3.4c1.1,0.8,2.7,0.4,3.4-0.7c2-3,5.3-4.8,9-4.8
			c5.1,0,9.3,3.5,10.4,8.3H156c-1.4,0-2.5,1.1-2.5,2.5c0,1.4,1.1,2.5,2.5,2.5h21.1v-2.5C177.1,38.2,170.1,31.1,161.4,31.1z"/>
	</g>
	<g>
		<path class="st10" d="M205.3,36.1c1.4,0,2.5-1.1,2.5-2.5c0-1.4-1.1-2.5-2.5-2.5h-11.1V20c0-1.4-1.1-2.5-2.5-2.5
			c-1.4,0-2.5,1.1-2.5,2.5v11.1h-6c-1.4,0-2.5,1.1-2.5,2.5c0,1.4,1.1,2.5,2.5,2.5H205.3z"/>
		<path class="st10" d="M205.2,50.8c-1.4,0-2.5,1.1-2.5,2.5c0,2.4-1.9,4.3-4.3,4.3c-2.4,0-4.3-1.9-4.3-4.3V41.7
			c0-1.4-1.1-2.5-2.5-2.5c-1.4,0-2.5,1.1-2.5,2.5v11.5c0,5.1,4.1,9.2,9.2,9.2c5.1,0,9.2-4.1,9.2-9.2
			C207.7,51.9,206.6,50.8,205.2,50.8z"/>
	</g>
	<path class="st10" d="M293,57.6c-2.4,0-4.3-1.9-4.3-4.3V20c0-1.4-1.1-2.5-2.5-2.5c-1.4,0-2.5,1.1-2.5,2.5v33.2
		c0,5.1,4.1,9.2,9.2,9.2c1.4,0,2.5-1.1,2.5-2.5C295.4,58.7,294.3,57.6,293,57.6z"/>
	<path class="st10" d="M246.8,57.6c-2.4,0-4.3-1.9-4.3-4.3V40.7c0-0.2,0-0.4,0-0.7v-6.4c0-1.4-1.1-2.5-2.5-2.5
		c-1.4,0-2.5,1.1-2.5,2.5V34c-2.6-1.8-5.7-2.9-9-2.9c-8.6,0-15.7,7-15.7,15.7c0,8.6,7,15.7,15.7,15.7c1.9,0,3.7-0.3,5.5-1
		c1.3-0.5,1.9-1.9,1.5-3.2c-0.5-1.3-1.9-1.9-3.2-1.5c-1.2,0.4-2.5,0.7-3.8,0.7c-5.9,0-10.7-4.8-10.7-10.7s4.8-10.7,10.7-10.7
		c3.7,0,7.1,1.9,9,5v12.2c0,5.1,4.1,9.2,9.2,9.2c1.4,0,2.5-1.1,2.5-2.5C249.3,58.7,248.2,57.6,246.8,57.6z"/>
	<g>
		<path class="st10" d="M310.3,36.5c1.3-0.4,2.1-1.7,1.7-3c-0.4-1.3-1.7-2.1-3-1.7c-6.8,1.8-11.6,8.1-11.6,15.1
			c0,7,4.7,13.3,11.5,15.1c0.2,0.1,0.4,0.1,0.7,0.1c1.1,0,2.1-0.7,2.4-1.8c0.4-1.3-0.4-2.7-1.7-3c-4.6-1.3-7.9-5.5-7.9-10.4
			C302.4,42,305.7,37.7,310.3,36.5z"/>
		<path class="st10" d="M317.8,31.6c-1.3-0.3-2.7,0.5-3,1.8c-0.3,1.3,0.5,2.7,1.8,3c4.8,1.2,8.1,5.5,8.1,10.4c0,4.9-3.3,9.2-8,10.4
			c-1.3,0.3-2.1,1.7-1.8,3c0.3,1.1,1.3,1.9,2.4,1.9c0.2,0,0.4,0,0.6-0.1c6.9-1.8,11.7-8,11.7-15.2C329.7,39.6,324.8,33.4,317.8,31.6
			z"/>
	</g>
</g>
</svg>
