<?xml version="1.0" encoding="utf-8"?>
<!-- Generator: Adobe Illustrator 23.0.0, SVG Export Plug-In . SVG Version: 6.00 Build 0)  -->
<svg version="1.1" id="图层_1" xmlns="http://www.w3.org/2000/svg" xmlns:xlink="http://www.w3.org/1999/xlink" x="0px" y="0px"
	 viewBox="0 0 362.1 58.3" style="enable-background:new 0 0 362.1 58.3;" xml:space="preserve">
<style type="text/css">
	.st0{fill:url(#SVGID_1_);}
	.st1{fill:url(#SVGID_2_);}
	.st2{fill:url(#SVGID_3_);}
	.st3{fill:url(#SVGID_4_);}
	.st4{fill:url(#SVGID_5_);}
	.st5{fill:url(#SVGID_6_);}
	.st6{fill:url(#SVGID_7_);}
	.st7{fill:url(#SVGID_8_);}
	.st8{fill:url(#SVGID_9_);}
	.st9{fill:url(#SVGID_10_);}
	.st10{fill:#888888;}
</style>
<g>
	<g>
		<g>
			<linearGradient id="SVGID_1_" gradientUnits="userSpaceOnUse" x1="33.8667" y1="72.2721" x2="65.9405" y2="44.5068">
				<stop  offset="0" style="stop-color:#00AEEB"/>
				<stop  offset="0.5162" style="stop-color:#2B883A"/>
				<stop  offset="1" style="stop-color:#EFEA45"/>
			</linearGradient>
			<path class="st0" d="M64.9,52.1c-3.7,0-6.7-3-6.7-6.7c0-3.7,3-6.7,6.7-6.7c3.7,0,6.7,3,6.7,6.7C71.6,49.1,68.6,52.1,64.9,52.1z
				 M64.9,42.5c-1.6,0-2.9,1.3-2.9,2.9c0,1.6,1.3,2.9,2.9,2.9c1.6,0,2.9-1.3,2.9-2.9C67.8,43.8,66.5,42.5,64.9,42.5z"/>
		</g>
		<g>
			<linearGradient id="SVGID_2_" gradientUnits="userSpaceOnUse" x1="19.3553" y1="55.5087" x2="51.429" y2="27.7435">
				<stop  offset="0" style="stop-color:#00AEEB"/>
				<stop  offset="0.5162" style="stop-color:#2B883A"/>
				<stop  offset="1" style="stop-color:#EFEA45"/>
			</linearGradient>
			<path class="st1" d="M75.7,13.4c-3.7,0-6.7-3-6.7-6.7C69,3,72,0,75.7,0c3.7,0,6.7,3,6.7,6.7C82.4,10.4,79.4,13.4,75.7,13.4z
				 M75.7,3.8c-1.6,0-2.9,1.3-2.9,2.9c0,1.6,1.3,2.9,2.9,2.9c1.6,0,2.9-1.3,2.9-2.9C78.6,5.1,77.3,3.8,75.7,3.8z"/>
		</g>
		<linearGradient id="SVGID_3_" gradientUnits="userSpaceOnUse" x1="25.6382" y1="62.7667" x2="57.7118" y2="35.0014">
			<stop  offset="0" style="stop-color:#00AEEB"/>
			<stop  offset="0.5162" style="stop-color:#2B883A"/>
			<stop  offset="1" style="stop-color:#EFEA45"/>
		</linearGradient>
		<path class="st2" d="M44.3,55.2c-0.5,0.9-0.2,2.1,0.7,2.6c0.3,0.2,0.6,0.3,1,0.3c0.7,0,1.3-0.3,1.6-0.9l17.2-28.8l-2.2-3.7
			L44.3,55.2z M74,9.1c-0.9-0.5-2.1-0.2-2.6,0.7l-2.1,3.6l2.2,3.7l3.2-5.4C75.2,10.8,74.9,9.7,74,9.1z"/>
		<g>
			<linearGradient id="SVGID_4_" gradientUnits="userSpaceOnUse" x1="35.8264" y1="74.5357" x2="67.9" y2="46.7705">
				<stop  offset="0" style="stop-color:#00AEEB"/>
				<stop  offset="0.5162" style="stop-color:#2B883A"/>
				<stop  offset="1" style="stop-color:#EFEA45"/>
			</linearGradient>
			<path class="st3" d="M58.7,58.2c-0.3,0-0.7-0.1-1-0.3c-0.9-0.5-1.2-1.7-0.7-2.6l4-6.6c0.5-0.9,1.7-1.2,2.6-0.7
				c0.9,0.5,1.2,1.7,0.7,2.6l-4,6.6C60,57.9,59.4,58.2,58.7,58.2z"/>
		</g>
		<g>
			<linearGradient id="SVGID_5_" gradientUnits="userSpaceOnUse" x1="16.928" y1="52.705" x2="49.0017" y2="24.9397">
				<stop  offset="0" style="stop-color:#00AEEB"/>
				<stop  offset="0.5162" style="stop-color:#2B883A"/>
				<stop  offset="1" style="stop-color:#EFEA45"/>
			</linearGradient>
			<path class="st4" d="M19.4,58c-0.3,0-0.7-0.1-1-0.3c-0.9-0.5-1.2-1.7-0.7-2.6L31.6,32c0.5-0.9,1.7-1.2,2.6-0.7
				c0.9,0.5,1.2,1.7,0.7,2.6L21.1,57.1C20.7,57.7,20.1,58,19.4,58z"/>
		</g>
		<g>
			<linearGradient id="SVGID_6_" gradientUnits="userSpaceOnUse" x1="9.532" y1="44.1613" x2="41.6058" y2="16.396">
				<stop  offset="0" style="stop-color:#00AEEB"/>
				<stop  offset="0.5162" style="stop-color:#2B883A"/>
				<stop  offset="1" style="stop-color:#EFEA45"/>
			</linearGradient>
			<path class="st5" d="M33.2,34.9H11.6c-1.1,0-1.9-0.9-1.9-1.9c0-1.1,0.9-1.9,1.9-1.9h21.6c1.1,0,1.9,0.9,1.9,1.9
				C35.1,34.1,34.3,34.9,33.2,34.9z"/>
		</g>
		<g>
			<linearGradient id="SVGID_7_" gradientUnits="userSpaceOnUse" x1="2.8037" y1="36.3889" x2="34.8773" y2="8.6236">
				<stop  offset="0" style="stop-color:#00AEEB"/>
				<stop  offset="0.5162" style="stop-color:#2B883A"/>
				<stop  offset="1" style="stop-color:#EFEA45"/>
			</linearGradient>
			<path class="st6" d="M6.7,39.7C3,39.7,0,36.7,0,33c0-3.7,3-6.7,6.7-6.7c3.7,0,6.7,3,6.7,6.7C13.4,36.7,10.4,39.7,6.7,39.7z
				 M6.7,30.1c-1.6,0-2.9,1.3-2.9,2.9c0,1.6,1.3,2.9,2.9,2.9c1.6,0,2.9-1.3,2.9-2.9C9.6,31.4,8.3,30.1,6.7,30.1z"/>
		</g>
		<g>
			<linearGradient id="SVGID_8_" gradientUnits="userSpaceOnUse" x1="31.6443" y1="69.7048" x2="63.718" y2="41.9396">
				<stop  offset="0" style="stop-color:#00AEEB"/>
				<stop  offset="0.5162" style="stop-color:#2B883A"/>
				<stop  offset="1" style="stop-color:#EFEA45"/>
			</linearGradient>
			<path class="st7" d="M45.8,54.4H35.5l11.2-18.8c-1.4-0.1-2.6-0.7-3.4-1.7L30.5,55.4c-0.4,0.6-0.4,1.3,0,1.9c0.3,0.6,1,1,1.7,1
				h13.7c1.1,0,1.9-0.9,1.9-1.9C47.7,55.3,46.9,54.4,45.8,54.4z M89.8,55.4l-28-46.9c-0.7-1.2-2.6-1.2-3.3,0L47.9,26.2
				c1.3,0.3,2.4,1.1,3.1,2.2l9.1-15.3l24.6,41.3H59c-1.1,0-1.9,0.9-1.9,1.9c0,1.1,0.9,1.9,1.9,1.9h29.2c0.7,0,1.3-0.4,1.7-1
				C90.2,56.7,90.2,55.9,89.8,55.4z"/>
			<linearGradient id="SVGID_9_" gradientUnits="userSpaceOnUse" x1="11.2034" y1="46.092" x2="43.2771" y2="18.3267">
				<stop  offset="0" style="stop-color:#00AEEB"/>
				<stop  offset="0.5162" style="stop-color:#2B883A"/>
				<stop  offset="1" style="stop-color:#EFEA45"/>
			</linearGradient>
			<path class="st8" d="M19.3,54.4H9l9.4-15.7h-4.5L4,55.4c-0.4,0.6-0.4,1.3,0,1.9c0.3,0.6,1,1,1.7,1h13.7c1.1,0,1.9-0.9,1.9-1.9
				C21.2,55.3,20.3,54.4,19.3,54.4z M35.3,8.4c-0.7-1.2-2.6-1.2-3.3,0L20.7,27.3h4.5l8.4-14.1l9.2,15.4c0.6-1.2,1.7-2,3.1-2.3
				L35.3,8.4z"/>
			<linearGradient id="SVGID_10_" gradientUnits="userSpaceOnUse" x1="18.9825" y1="55.0782" x2="51.0562" y2="27.3129">
				<stop  offset="0" style="stop-color:#00AEEB"/>
				<stop  offset="0.5162" style="stop-color:#2B883A"/>
				<stop  offset="1" style="stop-color:#EFEA45"/>
			</linearGradient>
			<path class="st9" d="M47,37.6c-3.7,0-6.7-3-6.7-6.7c0-3.7,3-6.7,6.7-6.7c3.7,0,6.7,3,6.7,6.7C53.7,34.6,50.7,37.6,47,37.6z
				 M47,28c-1.6,0-2.9,1.3-2.9,2.9c0,1.6,1.3,2.9,2.9,2.9c1.6,0,2.9-1.3,2.9-2.9C49.8,29.3,48.5,28,47,28z"/>
		</g>
	</g>
	<g>
		<path class="st10" d="M133.8,15.7c0-0.1,0-0.2,0-0.3c0-0.1,0-0.1,0-0.2c0-0.1,0-0.2-0.1-0.2c0-0.1,0-0.2-0.1-0.2
			c0-0.1-0.1-0.1-0.1-0.2c0-0.1-0.1-0.1-0.1-0.2c0-0.1-0.1-0.1-0.1-0.2c-0.1-0.1-0.1-0.1-0.2-0.2c0,0-0.1-0.1-0.1-0.1
			c-0.1-0.1-0.2-0.1-0.2-0.2c0,0,0,0,0,0c0,0-0.1,0-0.1-0.1c-0.1,0-0.2-0.1-0.3-0.1c-0.1,0-0.2,0-0.2-0.1c-0.1,0-0.2,0-0.2-0.1
			c-0.1,0-0.2,0-0.3,0c0,0-0.1,0-0.1,0c0,0,0,0,0,0c-0.1,0-0.2,0-0.4,0c0,0-0.1,0-0.1,0c-0.1,0-0.2,0.1-0.3,0.1c0,0-0.1,0-0.1,0
			c-0.1,0-0.2,0.1-0.3,0.2c0,0-0.1,0-0.1,0c-0.1,0.1-0.2,0.1-0.2,0.2c0,0-0.1,0.1-0.1,0.1c0,0-0.1,0.1-0.1,0.2
			c-0.1,0.1-0.1,0.1-0.2,0.2c0,0,0,0,0,0l-12.9,20.3l-12.9-20.3c-0.5-0.8-1.3-1.2-2.1-1.1c0,0-0.1,0-0.1,0c-1.4,0-2.5,1.1-2.5,2.5
			v40c0,1.4,1.1,2.5,2.5,2.5c1.4,0,2.5-1.1,2.5-2.5V24.1l10.5,16.5c0.2,0.3,0.5,0.6,0.8,0.9c0,0,0.1,0,0.1,0.1
			c0.1,0.1,0.2,0.1,0.3,0.1c0.1,0,0.2,0.1,0.3,0.1c0.2,0,0.3,0.1,0.5,0.1c0,0,0.1,0,0.1,0c0,0,0,0,0,0s0,0,0,0c0,0,0.1,0,0.1,0
			c0.2,0,0.3,0,0.5-0.1c0.1,0,0.2-0.1,0.3-0.1c0.1,0,0.2-0.1,0.3-0.1c0,0,0.1,0,0.1-0.1c0.4-0.2,0.6-0.5,0.8-0.9l10.3-16.3v31.5
			c0,1.4,1.1,2.5,2.5,2.5c1.4,0,2.5-1.1,2.5-2.5L133.8,15.7C133.8,15.8,133.8,15.7,133.8,15.7z"/>
		<path class="st10" d="M359.6,26.8c-1.4,0-2.5,1.1-2.5,2.5v18.2L346.7,31c-0.2-0.3-0.5-0.6-0.8-0.9c-0.1-0.1-0.2-0.1-0.3-0.2
			c0,0,0,0-0.1,0c-0.1,0-0.2-0.1-0.3-0.1c0,0-0.1,0-0.1,0c-0.1,0-0.2,0-0.3,0c-0.1,0-0.1,0-0.2,0c-0.1,0-0.1,0-0.2,0
			c-0.1,0-0.2,0-0.3,0c0,0-0.1,0-0.1,0c-0.1,0-0.2,0.1-0.4,0.1c0,0,0,0,0,0c-0.1,0-0.2,0.1-0.3,0.2c-0.3,0.2-0.6,0.5-0.8,0.9
			L332,47.3v-18c0-1.4-1.1-2.5-2.5-2.5c-1.4,0-2.5,1.1-2.5,2.5v26.5c0,0,0,0,0,0c0,0.1,0,0.2,0,0.3c0,0.1,0,0.1,0,0.2
			c0,0.1,0.1,0.2,0.1,0.3c0,0.1,0,0.1,0.1,0.2c0,0.1,0.1,0.2,0.1,0.2c0,0.1,0.1,0.1,0.1,0.2c0,0.1,0.1,0.1,0.2,0.2
			c0.1,0.1,0.1,0.1,0.2,0.2c0,0,0.1,0.1,0.1,0.1c0.1,0.1,0.2,0.1,0.2,0.2c0,0,0,0,0,0c0,0,0,0,0.1,0c0.2,0.1,0.3,0.2,0.5,0.2
			c0.1,0,0.1,0,0.2,0c0.2,0,0.4,0.1,0.6,0.1c0,0,0,0,0,0c0,0,0,0,0,0c0,0,0,0,0,0c0.2,0,0.4,0,0.6-0.1c0,0,0.1,0,0.1,0
			c0.1,0,0.3-0.1,0.4-0.2c0.1,0,0.1-0.1,0.2-0.1c0.1-0.1,0.2-0.2,0.3-0.2c0,0,0.1-0.1,0.1-0.1c0.1-0.1,0.3-0.3,0.4-0.4c0,0,0,0,0,0
			l12.9-20.3l12.9,20.3c0.5,0.7,1.3,1.1,2.1,1.1c0,0,0,0,0.1,0c0,0,0.1,0,0.1,0c1.4,0,2.5-1.1,2.5-2.5V29.2
			C362.1,27.9,361,26.8,359.6,26.8z"/>
		<path class="st10" d="M270.2,26.9h-17.8v-8.6h17.8c1.4,0,2.5-1.1,2.5-2.5s-1.1-2.5-2.5-2.5h-20.3c-1.4,0-2.5,1.1-2.5,2.5v40
			c0,1.4,1.1,2.5,2.5,2.5c1.4,0,2.5-1.1,2.5-2.5V31.8h17.8c1.4,0,2.5-1.1,2.5-2.5C272.7,28,271.6,26.9,270.2,26.9z"/>
		<g>
			<path class="st10" d="M166.7,48.6c-1.1-0.8-2.6-0.6-3.5,0.5c-2.1,2.7-5.2,4.3-8.6,4.3c-5.9,0-10.7-4.8-10.7-10.7
				c0-1.4-1.1-2.5-2.5-2.5c-1.4,0-2.5,1.1-2.5,2.5c0,8.6,7,15.7,15.7,15.7c5,0,9.5-2.3,12.5-6.2C168,50.9,167.8,49.4,166.7,48.6z"/>
			<path class="st10" d="M154.7,26.9c-5.3,0-10.2,2.6-13.1,7c-0.8,1.1-0.4,2.7,0.7,3.4c1.1,0.8,2.7,0.4,3.4-0.7c2-3,5.3-4.8,9-4.8
				c5.1,0,9.3,3.5,10.4,8.3h-15.9c-1.4,0-2.5,1.1-2.5,2.5c0,1.4,1.1,2.5,2.5,2.5h21.1v-2.5C170.4,33.9,163.3,26.9,154.7,26.9z"/>
		</g>
		<g>
			<path class="st10" d="M198.5,31.8c1.4,0,2.5-1.1,2.5-2.5c0-1.4-1.1-2.5-2.5-2.5h-11.1V15.8c0-1.4-1.1-2.5-2.5-2.5
				c-1.4,0-2.5,1.1-2.5,2.5v11.1h-6c-1.4,0-2.5,1.1-2.5,2.5c0,1.4,1.1,2.5,2.5,2.5H198.5z"/>
			<path class="st10" d="M198.5,46.5c-1.4,0-2.5,1.1-2.5,2.5c0,2.4-1.9,4.3-4.3,4.3c-2.4,0-4.3-1.9-4.3-4.3V37.5
				c0-1.4-1.1-2.5-2.5-2.5c-1.4,0-2.5,1.1-2.5,2.5V49c0,5.1,4.1,9.2,9.2,9.2c5.1,0,9.2-4.1,9.2-9.2C201,47.6,199.8,46.5,198.5,46.5z
				"/>
		</g>
		<path class="st10" d="M286.2,53.3c-2.4,0-4.3-1.9-4.3-4.3V15.8c0-1.4-1.1-2.5-2.5-2.5c-1.4,0-2.5,1.1-2.5,2.5V49
			c0,5.1,4.1,9.2,9.2,9.2c1.4,0,2.5-1.1,2.5-2.5C288.7,54.4,287.6,53.3,286.2,53.3z"/>
		<path class="st10" d="M240.1,53.3c-2.4,0-4.3-1.9-4.3-4.3V36.4c0-0.2,0-0.4,0-0.7v-6.4c0-1.4-1.1-2.5-2.5-2.5
			c-1.4,0-2.5,1.1-2.5,2.5v0.4c-2.6-1.8-5.7-2.9-9-2.9c-8.6,0-15.7,7-15.7,15.7c0,8.6,7,15.7,15.7,15.7c1.9,0,3.7-0.3,5.5-1
			c1.3-0.5,1.9-1.9,1.5-3.2c-0.5-1.3-1.9-1.9-3.2-1.5c-1.2,0.4-2.5,0.7-3.8,0.7c-5.9,0-10.7-4.8-10.7-10.7s4.8-10.7,10.7-10.7
			c3.7,0,7.1,1.9,9,5V49c0,5.1,4.1,9.2,9.2,9.2c1.4,0,2.5-1.1,2.5-2.5C242.5,54.4,241.4,53.3,240.1,53.3z"/>
		<g>
			<path class="st10" d="M303.6,32.2c1.3-0.4,2.1-1.7,1.7-3c-0.4-1.3-1.7-2.1-3-1.7c-6.8,1.8-11.6,8.1-11.6,15.1
				c0,7,4.7,13.3,11.5,15.1c0.2,0.1,0.4,0.1,0.7,0.1c1.1,0,2.1-0.7,2.4-1.8c0.4-1.3-0.4-2.7-1.7-3c-4.6-1.3-7.9-5.5-7.9-10.4
				C295.7,37.7,298.9,33.5,303.6,32.2z"/>
			<path class="st10" d="M311.1,27.3c-1.3-0.3-2.7,0.5-3,1.8c-0.3,1.3,0.5,2.7,1.8,3c4.8,1.2,8.1,5.5,8.1,10.4c0,4.9-3.3,9.2-8,10.4
				c-1.3,0.3-2.1,1.7-1.8,3c0.3,1.1,1.3,1.9,2.4,1.9c0.2,0,0.4,0,0.6-0.1c6.9-1.8,11.7-8,11.7-15.2
				C322.9,35.4,318.1,29.1,311.1,27.3z"/>
		</g>
	</g>
</g>
</svg>
